{"title":"Love Actually 2003 DVDRip x246 300MB - cRcWoRLd","uid":7621164,"size":307272066,"categoryP":"video","categoryS":"movies","magnet":"?xt=urn:btih:a07610e6f43fbd259d759e314c2285a03c62d47d&amp;dn=Love+Actually+2003+DVDRip+x246+300MB+-+cRcWoRLd&amp;tr=udp%3A%2F%2Ftracker.openbittorrent.com%3A80&amp;tr=udp%3A%2F%2Fopen.demonii.com%3A1337&amp;tr=udp%3A%2F%2Ftracker.coppersurfer.tk%3A6969&amp;tr=udp%3A%2F%2Fexodus.desync.com%3A6969","seeders":2,"leechers":0,"uploader":"CRCWORLD","files":1,"time":1347330926,"description":"General\nComplete name                            : LA2003.mp4\nFormat                                   : MPEG-4\nFormat profile                           : Base Media / Version 2\nCodec ID                                 : mp42\nFile size                                : 293 MiB\nDuration                                 : 2h 9mn\nOverall bit rate mode                    : Variable\nOverall bit rate                         : 317 Kbps\n\nVideo\nID                                       : 1\nFormat                                   : AVC\nFormat/Info                              : Advanced Video Codec\nFormat profile                           : &lt;a class=&quot;__cf_email__&quot; href=&quot;/cdn-cgi/l/email-protection&quot; data-cfemail=&quot;5e1c3f2d3b3237303b1e126c706f&quot;&gt;[email&amp;#160;protected]&lt;/a&gt;&lt;script cf-hash='f9e31' type=&quot;text/javascript&quot;&gt;\n/* &lt;![CDATA[ */!function(){try{var t=&quot;currentScript&quot;in document?document.currentScript:function(){for(var t=document.getElementsByTagName(&quot;script&quot;),e=t.length;e--;)if(t[e].getAttribute(&quot;cf-hash&quot;))return t[e]}();if(t&amp;&amp;t.previousSibling){var e,r,n,i,c=t.previousSibling,a=c.getAttribute(&quot;data-cfemail&quot;);if(a){for(e=&quot;&quot;,r=parseInt(a.substr(0,2),16),n=2;a.length-n;n+=2)i=parseInt(a.substr(n,2),16)^r,e+=String.fromCharCode(i);e=document.createTextNode(e),c.parentNode.replaceChild(e,c)}}}catch(u){}}();/* ]]&gt; */&lt;/script&gt;\nFormat settings, CABAC                   : No\nFormat settings, ReFrames                : 2 frames\nCodec ID                                 : avc1\nCodec ID/Info                            : Advanced Video Coding\nDuration                                 : 2h 9mn\nBit rate mode                            : Variable\nBit rate                                 : 250 Kbps\nWidth                                    : 640 pixels\nHeight                                   : 272 pixels\nDisplay aspect ratio                     : 2.35:1\nFrame rate mode                          : Constant\nFrame rate                               : 25.000 fps\nColor space                              : YUV\nChroma subsampling                       : 4:2:0\nBit depth                                : 8 bits\nScan type                                : Progressive\nBits/(Pixel*Frame)                       : 0.057\nStream size                              : 231 MiB (79%)\nWriting library                          : x264 core 120\n\nAudio\nID                                       : 2\nFormat                                   : AAC\nFormat/Info                              : Advanced Audio Codec\nFormat profile                           : LC\nCodec ID                                 : 40\nDuration                                 : 2h 9mn\nBit rate mode                            : Variable\nBit rate                                 : 64.2 Kbps\nMaximum bit rate                         : 110 Kbps\nChannel(s)                               : 2 channels\nChannel positions                        : Front: L R\nSampling rate                            : 48.0 KHz\nCompression mode                         : Lossy\nStream size                              : 59.3 MiB (20%)\nLanguage                                 : English\n &lt;a href=&quot;\nhttp://img812.imageshack.us/img812/5544/vlcsnap2012090621h53m59.png&quot; rel=&quot;nofollow&quot; target=&quot;_NEW&quot;&gt;\nhttp://img812.imageshack.us/img812/5544/vlcsnap2012090621h53m59.png&lt;/a&gt; &lt;a href=&quot;\nhttp://img405.imageshack.us/img405/5964/vlcsnap2012090621h48m52.png&quot; rel=&quot;nofollow&quot; target=&quot;_NEW&quot;&gt;\nhttp://img405.imageshack.us/img405/5964/vlcsnap2012090621h48m52.png&lt;/a&gt; &lt;a href=&quot;\nhttp://img513.imageshack.us/img513/6177/la200.jpg&quot; rel=&quot;nofollow&quot; target=&quot;_NEW&quot;&gt;\nhttp://img513.imageshack.us/img513/6177/la200.jpg&lt;/a&gt;","torrent":{"xt":"urn:btih:a07610e6f43fbd259d759e314c2285a03c62d47d","amp;dn":"Love+Actually+2003+DVDRip+x246+300MB+-+cRcWoRLd","amp;tr":["udp%3A%2F%2Ftracker.openbittorrent.com%3A80","udp%3A%2F%2Fopen.demonii.com%3A1337","udp%3A%2F%2Ftracker.coppersurfer.tk%3A6969","udp%3A%2F%2Fexodus.desync.com%3A6969"],"infoHash":"a07610e6f43fbd259d759e314c2285a03c62d47d","infoHashBuffer":{"type":"Buffer","data":[160,118,16,230,244,63,189,37,157,117,158,49,76,34,133,160,60,98,212,125]},"announce":[],"urlList":[]}}